<svg viewBox="0 0 22 23" fill="none" xmlns="http://www.w3.org/2000/svg">
<path fill-rule="evenodd" clip-rule="evenodd" d="M0.5 3.44996C0.5 2.53497 0.868749 1.65746 1.52513 1.01047C2.1815 0.363477 3.07174 0 4 0H18C18.9283 0 19.8185 0.363477 20.4749 1.01047C21.1313 1.65746 21.5 2.53497 21.5 3.44996V21.8497C21.4999 22.0663 21.4377 22.2785 21.3206 22.4618C21.2035 22.6451 21.0363 22.792 20.8382 22.8857C20.6401 22.9795 20.4192 23.0161 20.2008 22.9916C19.9825 22.967 19.7757 22.8821 19.6042 22.7467L17.3537 20.9734L14.5642 22.8065C14.3581 22.9421 14.1136 23.0095 13.8661 22.9989C13.6186 22.9884 13.3809 22.9004 13.1875 22.7479L11 21.0217L8.8125 22.7467C8.61908 22.8993 8.3814 22.9872 8.13389 22.9978C7.88638 23.0083 7.64189 22.9409 7.43583 22.8054L4.64633 20.9723L2.39467 22.7467C2.22312 22.8817 2.0164 22.9663 1.79827 22.9907C1.58014 23.0151 1.35945 22.9784 1.16156 22.8847C0.96367 22.791 0.796612 22.6442 0.679585 22.4611C0.562559 22.278 0.500313 22.0661 0.5 21.8497V3.44996ZM6.33333 4.59994C6.02391 4.59994 5.72717 4.7211 5.50838 4.93677C5.28958 5.15243 5.16667 5.44493 5.16667 5.74993C5.16667 6.05492 5.28958 6.34743 5.50838 6.56309C5.72717 6.77875 6.02391 6.89991 6.33333 6.89991H15.6667C15.9761 6.89991 16.2728 6.77875 16.4916 6.56309C16.7104 6.34743 16.8333 6.05492 16.8333 5.74993C16.8333 5.44493 16.7104 5.15243 16.4916 4.93677C16.2728 4.7211 15.9761 4.59994 15.6667 4.59994H6.33333ZM6.33333 9.19988C6.02391 9.19988 5.72717 9.32104 5.50838 9.53671C5.28958 9.75237 5.16667 10.0449 5.16667 10.3499C5.16667 10.6549 5.28958 10.9474 5.50838 11.163C5.72717 11.3787 6.02391 11.4999 6.33333 11.4999H15.6667C15.9761 11.4999 16.2728 11.3787 16.4916 11.163C16.7104 10.9474 16.8333 10.6549 16.8333 10.3499C16.8333 10.0449 16.7104 9.75237 16.4916 9.53671C16.2728 9.32104 15.9761 9.19988 15.6667 9.19988H6.33333ZM6.33333 13.7998C6.02391 13.7998 5.72717 13.921 5.50838 14.1367C5.28958 14.3523 5.16667 14.6448 5.16667 14.9498C5.16667 15.2548 5.28958 15.5473 5.50838 15.763C5.72717 15.9786 6.02391 16.0998 6.33333 16.0998H11C11.3094 16.0998 11.6062 15.9786 11.825 15.763C12.0437 15.5473 12.1667 15.2548 12.1667 14.9498C12.1667 14.6448 12.0437 14.3523 11.825 14.1367C11.6062 13.921 11.3094 13.7998 11 13.7998H6.33333Z" fill="#FDF7FC"/>
</svg>
