<svg viewBox="0 0 17 20" fill="none" xmlns="http://www.w3.org/2000/svg">
<path d="M12.1625 1H4.23745C3.27162 1 2.78912 1 2.39912 1.1467C2.03156 1.28774 1.69899 1.51827 1.42717 1.82041C1.15536 2.12255 0.951576 2.48821 0.831618 2.88906C0.699951 3.32285 0.699951 3.85924 0.699951 4.93291V17.5362C0.699951 18.3084 1.52078 18.7188 2.03995 18.2058C2.18561 18.0605 2.37664 17.9798 2.57495 17.9798C2.77327 17.9798 2.9643 18.0605 3.10995 18.2058L3.51245 18.6036C3.76762 18.8585 4.1024 19 4.44995 19C4.79751 19 5.13228 18.8585 5.38745 18.6036C5.64262 18.3488 5.9774 18.2072 6.32495 18.2072C6.67251 18.2072 7.00728 18.3488 7.26245 18.6036C7.51762 18.8585 7.8524 19 8.19995 19C8.54751 19 8.88228 18.8585 9.13745 18.6036C9.39262 18.3488 9.7274 18.2072 10.075 18.2072C10.4225 18.2072 10.7573 18.3488 11.0125 18.6036C11.2676 18.8585 11.6024 19 11.95 19C12.2975 19 12.6323 18.8585 12.8875 18.6036L13.29 18.2058C13.4356 18.0605 13.6266 17.9798 13.825 17.9798C14.0233 17.9798 14.2143 18.0605 14.36 18.2058C14.8791 18.7188 15.7 18.3084 15.7 17.5362V4.93291C15.7 3.85924 15.7 3.32195 15.5683 2.88996C15.4484 2.48894 15.2447 2.1231 14.9729 1.8208C14.7011 1.51849 14.3684 1.28784 14.0008 1.1467C13.6108 1 13.1283 1 12.1625 1Z" stroke="white" stroke-width="1.25"/>
<path d="M4.32521 14.7812H11.8367" stroke="white" stroke-linecap="round"/>
<path d="M4.32521 12.8125H7.93073" stroke="white" stroke-linecap="round"/>
<path d="M4.32521 10.8438H10.0339" stroke="white" stroke-linecap="round"/>
<path d="M4.32521 6.90625H11.0856" stroke="white" stroke-linecap="round"/>
<path d="M4.32521 4.9375H11.8367" stroke="white" stroke-linecap="round"/>
<path d="M4.32521 8.875H8.98234" stroke="white" stroke-linecap="round"/>
</svg>
