<svg width="28" height="28" fill="none" version="1.1" viewBox="0 0 28 28" xmlns="http://www.w3.org/2000/svg"><circle cx="14" cy="14" r="14" fill="#c59149"/><circle cx="14" cy="14" r="13" stroke="url(#b)" stroke-width="2"/><path d="m13.754 20.778c-0.9247 0-1.843-0.1203-2.755-0.361-0.912-0.2533-1.6847-0.608-2.318-1.064l1.197-2.356c0.5067 0.3673 1.0957 0.6587 1.767 0.874s1.349 0.323 2.033 0.323c0.7727 0 1.3807-0.152 1.824-0.456s0.665-0.722 0.665-1.254c0-0.5067-0.1963-0.9057-0.589-1.197s-1.026-0.437-1.9-0.437h-1.406v-2.033l3.705-4.199 0.342 1.102h-6.973v-2.47h9.31v1.995l-3.686 4.199-1.558-0.893h0.893c1.634 0 2.869 0.3673 3.705 1.102s1.254 1.6783 1.254 2.831c0 0.7473-0.1963 1.4503-0.589 2.109-0.3927 0.646-0.9943 1.1717-1.805 1.577s-1.8493 0.608-3.116 0.608z" fill="url(#a)"/><defs><linearGradient id="b" x1="22" x2="22" y1="4" y2="38.457" gradientUnits="userSpaceOnUse"><stop stop-color="#FFC573" offset="0"/><stop stop-color="#8A690F" offset="1"/></linearGradient><linearGradient id="a" x1="22.7" x2="22.7" y1="8.55" y2="27.55" gradientUnits="userSpaceOnUse"><stop stop-color="#FCF1D9" offset="0"/><stop stop-color="#F4CE7B" offset="1"/></linearGradient></defs></svg>
