<svg width="25" height="25" viewBox="0 0 25 25" fill="none" xmlns="http://www.w3.org/2000/svg">
<path d="M12.5483 6.5C11.6651 6.5 10.9727 7.3437 11.0555 8.32L11.6483 13.715C11.6663 13.9611 11.7686 14.1909 11.9352 14.3593C12.1018 14.5277 12.3205 14.6225 12.5483 14.625C12.7762 14.6225 12.9949 14.5277 13.1614 14.3593C13.328 14.1909 13.4303 13.9611 13.4483 13.715L14.0411 8.32C14.1251 7.345 13.4315 6.5 12.5483 6.5ZM12.5483 19.5C12.9461 19.5 13.3277 19.3288 13.609 19.024C13.8903 18.7193 14.0483 18.306 14.0483 17.875C14.0483 17.444 13.8903 17.0307 13.609 16.726C13.3277 16.4212 12.9461 16.25 12.5483 16.25C12.1505 16.25 11.769 16.4212 11.4877 16.726C11.2064 17.0307 11.0483 17.444 11.0483 17.875C11.0483 18.306 11.2064 18.7193 11.4877 19.024C11.769 19.3288 12.1505 19.5 12.5483 19.5Z" fill="#666666"/>
<path d="M12.5 2.84865C11.1943 2.84865 9.90136 3.10583 8.69503 3.6055C7.48871 4.10518 6.39262 4.83756 5.46934 5.76084C4.54606 6.68412 3.81367 7.78021 3.314 8.98654C2.81432 10.1929 2.55714 11.4858 2.55714 12.7915C2.55714 14.0972 2.81432 15.3901 3.314 16.5965C3.81367 17.8028 4.54606 18.8989 5.46934 19.8222C6.39262 20.7454 7.48871 21.4778 8.69503 21.9775C9.90136 22.4772 11.1943 22.7344 12.5 22.7344C15.137 22.7344 17.666 21.6868 19.5307 19.8222C21.3953 17.9575 22.4429 15.4285 22.4429 12.7915C22.4429 10.1545 21.3953 7.62549 19.5307 5.76084C17.666 3.8962 15.137 2.84865 12.5 2.84865ZM0.5 12.7915C0.5 9.60891 1.76428 6.55666 4.01472 4.30622C6.26516 2.05579 9.3174 0.791504 12.5 0.791504C15.6826 0.791504 18.7348 2.05579 20.9853 4.30622C23.2357 6.55666 24.5 9.60891 24.5 12.7915C24.5 15.9741 23.2357 19.0264 20.9853 21.2768C18.7348 23.5272 15.6826 24.7915 12.5 24.7915C9.3174 24.7915 6.26516 23.5272 4.01472 21.2768C1.76428 19.0264 0.5 15.9741 0.5 12.7915Z" fill="#666666"/>
</svg>
