<svg width="180" height="180" fill="none" version="1.1" viewBox="0 0 180 180" xmlns="http://www.w3.org/2000/svg"><g fill="#fff"><path d="m118.54 147.05v-45.094h9.438v37.313h19.718v7.781z"/><path d="m54.059 147.83c-13.406 0-21.75-8.969-21.75-23.312v-0.063c0-14.344 8.4062-23.281 21.75-23.281 13.375 0 21.75 8.969 21.75 23.281v0.063c0 14.343-8.3438 23.312-21.75 23.312zm0-8c7.5 0 12.125-5.969 12.125-15.312v-0.063c0-9.406-4.7188-15.281-12.125-15.281-7.375 0-12.125 5.844-12.125 15.281v0.063c0 9.437 4.7187 15.312 12.125 15.312z"/><path d="m118.5 78.047v-37.312h-13.031v-7.7813h35.531v7.7813h-13.062v37.312z"/><path d="m54.184 78.828c-10.719 0-17.625-4.9062-18.156-13.219l-0.0313-0.5h8.9063l0.0625 0.3437c0.5938 3.5 4.3125 5.6876 9.4688 5.6876 5.2187 0 8.5-2.2813 8.5-5.7188v-0.0312c0-3.0626-2.2188-4.5938-7.8126-5.75l-4.75-0.9376c-8.9062-1.7812-13.406-6.0312-13.406-12.812v-0.0313c0-8.25 7.1875-13.688 17.188-13.688 10.438 0 16.844 5.2188 17.281 13.125l0.0312 0.5938h-8.9062l-0.0313-0.375c-0.4687-3.5313-3.7187-5.6876-8.375-5.6876-4.8437 0.0313-7.75 2.25-7.75 5.4688v0.0312c0 2.8438 2.3125 4.5 7.5 5.5313l4.7813 0.9687c9.4374 1.875 13.687 5.7188 13.687 12.813v0.0312c0 8.6562-6.8124 14.156-18.187 14.156z"/></g></svg>
