<svg width="27" height="27" viewBox="0 0 27 27" fill="none" xmlns="http://www.w3.org/2000/svg">
<rect width="27" height="27" rx="13.5" fill="#54E47B"/>
<path d="M18.6384 10.0042C18.8924 10.0064 19.1356 10.1087 19.3152 10.2883C19.4947 10.4679 19.5971 10.7103 19.5994 10.9641C19.6016 11.2181 19.5034 11.463 19.3269 11.6458L19.2908 11.6838H19.2781L12.5642 18.3977C12.3825 18.5793 12.1355 18.6809 11.8787 18.6809C11.622 18.6808 11.3757 18.5792 11.1941 18.3977L7.81714 15.0208C7.64086 14.8381 7.54345 14.593 7.54565 14.3391C7.54796 14.0852 7.65031 13.8429 7.82983 13.6633C8.00936 13.4838 8.25175 13.3815 8.50562 13.3792C8.75948 13.3769 9.00458 13.4744 9.18726 13.6506L11.8845 16.3479L17.9558 10.2776L17.9578 10.2756C18.1403 10.0995 18.3848 10.0021 18.6384 10.0042Z" fill="white" stroke="white" stroke-width="0.25"/>
</svg>
