<svg width="15" height="16" viewBox="0 0 15 16" fill="none" xmlns="http://www.w3.org/2000/svg">
<path d="M5.20185 1.26064C6.79087 0.749456 8.50519 0.783289 10.0729 1.35634C10.2798 1.43197 10.4431 1.59501 10.5192 1.80166C10.5952 2.00819 10.5766 2.23793 10.4685 2.42959C10.3616 2.61916 10.3061 2.83404 10.3083 3.05166C10.3105 3.26941 10.3704 3.48331 10.4811 3.6708C10.592 3.85819 10.7505 4.01308 10.9401 4.12002C11.1298 4.22691 11.3445 4.28236 11.5622 4.28017H11.6374C11.8625 4.28017 12.076 4.38122 12.2185 4.55556C12.3608 4.72993 12.4177 4.95904 12.3727 5.17959C12.3453 5.31397 12.3475 5.45347 12.3796 5.58681C12.4118 5.72033 12.4735 5.84576 12.5593 5.95302C12.6451 6.0602 12.7535 6.14719 12.8767 6.20791C12.9977 6.26757 13.1305 6.29989 13.2653 6.30361C13.3409 6.30295 13.4323 6.29306 13.5163 6.27334C13.5582 6.26346 13.5931 6.25316 13.6188 6.24306C13.6377 6.23564 13.6479 6.22925 13.6511 6.22744C13.8554 6.09123 14.114 6.06418 14.3425 6.1542C14.5709 6.24432 14.7411 6.44058 14.7976 6.67959C15.1801 8.30443 15.0099 10.0113 14.3132 11.5282C13.6165 13.0451 12.4326 14.286 10.9509 15.0546C9.46911 15.823 7.77278 16.0756 6.13154 15.7714C4.49035 15.4671 2.99721 14.6234 1.88935 13.3749C0.781596 12.1264 0.122119 10.5435 0.0153265 8.87783C-0.0913493 7.21216 0.361152 5.5583 1.30048 4.17861C2.23994 2.79896 3.61292 1.7719 5.20185 1.26064ZM7.52119 6.37295C6.40329 6.3731 5.49697 7.27952 5.49677 8.39736C5.49677 9.51537 6.40316 10.4216 7.52119 10.4218C8.63934 10.4218 9.5456 9.51546 9.5456 8.39736C9.5454 7.27943 8.63921 6.37295 7.52119 6.37295Z" fill="url(#paint0_linear_8446_17098)"/>
<defs>
<linearGradient id="paint0_linear_8446_17098" x1="7.70686" y1="2.98328" x2="7.4986" y2="15.8968" gradientUnits="userSpaceOnUse">
<stop offset="0.2" stop-color="#BF7A50"/>
<stop offset="1" stop-color="#7A513F"/>
</linearGradient>
</defs>
</svg>
