<svg width="13" height="16.25" fill="none" version="1.1" viewBox="0 0 13 16.25" xmlns="http://www.w3.org/2000/svg"><path d="m5.5678 0.45563c0.11115-0.14203 0.25277-0.25681 0.41423-0.33572 0.16145-0.07891 0.33854-0.11991 0.51796-0.11991s0.35651 0.041 0.51796 0.11991c0.16146 0.07891 0.30308 0.19369 0.41423 0.33572l5.2274 6.68c0.2205 0.28174 0.3404 0.63017 0.3404 0.98908 0 0.35895-0.1199 0.70735-0.3404 0.98905l-5.2274 6.6801c-0.11114 0.1421-0.2528 0.257-0.41433 0.3361-0.16153 0.079-0.33873 0.12-0.51826 0.12-0.17952 0-0.35672-0.041-0.51825-0.12-0.16153-0.0791-0.30319-0.194-0.41433-0.3361l-5.2266-6.6793c-0.22049-0.2817-0.34042-0.6302-0.34042-0.9891 0-0.35886 0.11993-0.70729 0.34042-0.98903z" clip-rule="evenodd" fill="url(#a)" fill-rule="evenodd"/><defs><linearGradient id="a" x1="7.85" x2="7.85" y1="1.875" y2="18.125" gradientTransform="translate(-2,-1.875)" gradientUnits="userSpaceOnUse"><stop stop-color="#DD5587" offset="0"/><stop stop-color="#BF265E" offset="1"/></linearGradient></defs></svg>
