<svg width="35" height="35" version="1.1" viewBox="0 0 35 35" xmlns="http://www.w3.org/2000/svg">
<circle cx="17.5" cy="17.5" r="17.5" fill="#d85a93"/>
<path d="m20.587 24.875c0 0.1624-0.0639 0.3187-0.1787 0.4336-0.1149 0.1148-0.2712 0.1787-0.4336 0.1787-0.1622 0-0.3178-0.0641-0.4326-0.1787l-2.042-2.043-2.042 2.043-0.0019 0.0019c-0.1156 0.1116-0.2711 0.1733-0.4317 0.1719-0.1604-0.0015-0.3143-0.0662-0.4277-0.1797s-0.1773-0.2673-0.1787-0.4277c-0.0014-0.1605 0.0603-0.3152 0.1718-0.4307l2e-3 -0.0019 2.4746-2.4756c0.1149-0.1148 0.2712-0.1787 0.4336-0.1787 0.1622 0 0.3178 0.0641 0.4326 0.1787l2.4756 2.4756c0.1146 0.1148 0.1787 0.2704 0.1787 0.4326z" fill="#f2bfe3" stroke="#f2bfe3" stroke-width=".35"/>
<path d="m22.201 20.375c0 0.2154-0.086 0.4228-0.2383 0.5752-0.1523 0.1521-0.359 0.2373-0.5742 0.2373-0.2153 0-0.4219-0.0852-0.5742-0.2373l-3.3145-3.3154-3.3164 3.3164c-0.1531 0.1479-0.3584 0.2302-0.5713 0.2285-0.213-0.0019-0.4177-0.0876-0.5684-0.2383-0.1504-0.1506-0.2354-0.3545-0.2373-0.5674-0.0018-0.2129 0.0797-0.4181 0.2276-0.5713l3.8906-3.8906c0.1524-0.1523 0.3598-0.2383 0.5752-0.2383 0.2153 1e-4 0.4219 0.0861 0.5742 0.2383l3.8887 3.8887c0.1522 0.1523 0.2382 0.3589 0.2383 0.5742z" fill="#f8ddf4" stroke="#f8ddf4" stroke-width=".25"/>
<path d="m23.467 16.537c-0.1758 0.1758-0.4142 0.2745-0.6628 0.2745s-0.487-0.0987-0.6628-0.2745l-4.6406-4.6406-4.6407 4.6406c-0.1768 0.1708-0.4136 0.2653-0.6594 0.2632-0.2458-0.0022-0.4809-0.1008-0.6548-0.2746-0.1738-0.1738-0.2724-0.4089-0.2745-0.6547-0.0021-0.2459 0.0924-0.4827 0.2631-0.6595l5.3035-5.3034c0.1758-0.1758 0.4142-0.2745 0.6628-0.2745s0.487 0.0987 0.6628 0.2745l5.3034 5.3034c0.1758 0.1758 0.2745 0.4142 0.2745 0.6628s-0.0987 0.487-0.2745 0.6628z" fill="#fdf7fc"/>
</svg>
