<svg width="28" height="28" fill="none" version="1.1" viewBox="0 0 28 28" xmlns="http://www.w3.org/2000/svg"><circle cx="14" cy="14" r="14" fill="#8B8B8B"/><circle cx="14" cy="14" r="13" stroke="url(#b)" stroke-width="2"/><path d="m9.2785 20.764v-1.995l5.13-4.845c0.4053-0.3673 0.703-0.6967 0.893-0.988s0.3167-0.5573 0.38-0.798c0.076-0.2407 0.114-0.4623 0.114-0.665 0-0.532-0.1837-0.9373-0.551-1.216-0.3547-0.2913-0.8803-0.437-1.577-0.437-0.5573 0-1.0767 0.1077-1.558 0.323-0.4687 0.2153-0.8677 0.551-1.197 1.007l-2.242-1.444c0.5067-0.76 1.216-1.3617 2.128-1.805s1.9633-0.665 3.154-0.665c0.988 0 1.8493 0.1647 2.584 0.494 0.7473 0.3167 1.3237 0.7663 1.729 1.349 0.418 0.5827 0.627 1.2793 0.627 2.09 0 0.4307-0.057 0.8613-0.171 1.292-0.1013 0.418-0.3167 0.8613-0.646 1.33-0.3167 0.4687-0.7853 0.9943-1.406 1.577l-4.256 4.009-0.589-1.121h7.505v2.508z" fill="url(#a)"/><defs><linearGradient id="b" x1="22" x2="22" y1="4" y2="38.457" gradientUnits="userSpaceOnUse"><stop stop-color="#C7C7C7" offset="0"/><stop stop-color="#5E5E5E" offset="1"/></linearGradient><linearGradient id="a" x1="22.6" x2="22.6" y1="8.75" y2="30.901" gradientTransform="translate(-7.9486,-3.986)" gradientUnits="userSpaceOnUse"><stop stop-color="#EBEBEB" offset="0"/><stop stop-color="#B8B8B8" offset="1"/></linearGradient></defs></svg>
