<svg width="111" height="110" viewBox="0 0 111 110" fill="none" xmlns="http://www.w3.org/2000/svg">
<path d="M41.625 0H8C3.58172 0 0 3.58172 0 8V41.25H41.625V0ZM34.6875 34.375H6.9375V6.875H34.6875V34.375Z" fill="#4D4D4D"/>
<path d="M13.875 13.75H27.75V27.5H13.875V13.75ZM0 102C0 106.418 3.58172 110 8 110H41.625V68.75H0V102ZM6.9375 75.625H34.6875V103.125H6.9375V75.625Z" fill="#4D4D4D"/>
<path d="M13.875 82.5H27.75V96.25H13.875V82.5ZM69.375 0V41.25H111V8C111 3.58172 107.418 0 103 0H69.375ZM104.062 34.375H76.3125V6.875H104.062V34.375Z" fill="#4D4D4D"/>
<path d="M83.25 13.75H97.125V27.5H83.25V13.75ZM13.875 48.125H0V61.875H20.8125V55H13.875V48.125ZM48.5625 61.875H62.4375V75.625H48.5625V61.875ZM20.8125 48.125H34.6875V55H20.8125V48.125ZM62.4375 82.5H48.5625V89.375H55.5V96.25H62.4375V89.375V82.5ZM41.625 48.125V55H34.6875V61.875H48.5625V48.125H41.625ZM55.5 27.5H62.4375V41.25H55.5V27.5ZM62.4375 55V61.875H76.3125V48.125H55.5V55H62.4375ZM48.5625 41.25H55.5V48.125H48.5625V41.25ZM62.4375 96.25H76.3125V110H62.4375V96.25ZM48.5625 96.25H55.5V110H48.5625V96.25ZM62.4375 75.625H69.375V82.5H62.4375V75.625ZM62.4375 20.625V6.875H55.5V0H48.5625V27.5H55.5V20.625H62.4375ZM83.25 96.25H90.1875V110H83.25V96.25ZM83.25 82.5H97.125V89.375H83.25V82.5ZM76.3125 89.375H83.25V96.25H76.3125V89.375ZM69.375 82.5H76.3125V89.375H69.375V82.5ZM97.125 68.75V75.625H104.062V82.5H111V68.75H104.062H97.125ZM104.062 89.375H97.125V110H103C107.418 110 111 106.418 111 102V96.25H104.062V89.375ZM69.375 68.75V75.625H90.1875V61.875H76.3125V68.75H69.375ZM83.25 48.125V55H97.125V61.875H111V48.125H97.125H83.25Z" fill="#4D4D4D"/>
</svg>
