<svg width="160" height="160" viewBox="0 0 160 160" fill="currentcolor" xmlns="http://www.w3.org/2000/svg">
<path d="M45 15H50C52.75 15 55 17.25 55 20V27.15C55 28.7 53.7 30 52.15 30H45C42.25 30 40 27.75 40 25V20C40 17.25 42.25 15 45 15ZM59.95 145.15H65C67.75 145.15 70 142.9 70 140.15V135.15C70 132.4 67.75 130.15 65 130.15H52.85C51.3 130.15 50 131.45 50 133V135.2C50 140.7 54.45 145.15 59.95 145.15ZM90 135.15V140.15C90 142.9 92.25 145.15 95 145.15H100.15C105.6 145.15 110 140.75 110 135.3V133C110 132.244 109.7 131.519 109.165 130.985C108.631 130.45 107.906 130.15 107.15 130.15H95C92.25 130.15 90 132.4 90 135.15ZM120 25V20C120 17.25 117.75 15 115 15H110C107.25 15 105 17.25 105 20V27.15C105 28.7 106.3 30 107.85 30H115C117.75 30 120 27.75 120 25ZM140 55.15C140 52.4 142.25 50.15 145 50.15C147.75 50.15 150 52.4 150 55.15V75.15C150 77.9 147.75 80.15 145 80.15H142.85C142.094 80.15 141.369 80.4503 140.835 80.9847C140.3 81.5192 140 82.2441 140 83V85.3C140 90.75 135.6 95.15 130.15 95.15H127.85C127.094 95.15 126.369 95.4503 125.835 95.9847C125.3 96.5192 125 97.2441 125 98V120.2C125 125.7 120.55 130.15 115.05 130.15H112.85C112.094 130.15 111.369 129.85 110.835 129.315C110.3 128.781 110 128.056 110 127.3V113C110 112.244 109.7 111.519 109.165 110.985C108.631 110.45 107.906 110.15 107.15 110.15H52.85C52.0941 110.15 51.3692 110.45 50.8347 110.985C50.3003 111.519 50 112.244 50 113V127.3C50 128.85 48.75 130.15 47.15 130.15H45C39.5 130.15 35 125.65 35 120.15V98C35 96.45 33.7 95.15 32.15 95.15H30C24.5 95.15 20 90.65 20 85.15V83C20 81.45 18.7 80.15 17.15 80.15H15C12.25 80.15 10 77.9 10 75.15V55.15C10 52.4 12.25 50.15 15 50.15H15.15C17.9 50.15 20.15 52.4 20.15 55.15V62.3C20.15 63.9 21.4 65.15 23 65.15L32 65.1C33.5 65.05 34.8 64 35 62.55C36.2 53.5 43.55 46.45 52.65 45.3C54 45.15 55 43.9 55 42.5V32.85C55 31.3 56.3 30 57.9 30H59.4C65.25 30 70 34.75 70 40.6V42.3C70 43.9 71.3 45.15 72.85 45.15H87.15C88.7 45.15 90 43.9 90 42.3V40.35C90 34.65 94.65 30 100.35 30H102.15C103.7 30 105 31.3 105 32.85V42.5C105 43.9 106 45.15 107.35 45.3C116.45 46.4 123.7 53.5 124.85 62.6C125.05 64.1 126.35 65.15 127.85 65.15H137.15C138.7 65.15 140 63.9 140 62.3V55.15ZM55 85C55.6643 85.0001 56.3219 84.8679 56.9344 84.611C57.547 84.3541 58.1022 83.9777 58.5677 83.5039C59.0332 83.03 59.3996 82.4681 59.6455 81.8511C59.8915 81.234 60.012 80.5741 60 79.91V70.09C60 67.265 57.77 65 55 65C52.225 65 50 67.265 50 70.09V79.91C50 82.735 52.225 85 55 85ZM100 79.91C100 82.735 102.225 85 105 85C107.775 85 110 82.685 110 79.91V70.09C110 67.265 107.775 65 105 65C102.225 65 100 67.265 100 70.09V79.91Z"/>
</svg>
