<svg width="21" height="21" viewBox="0 0 21 21" fill="none" stroke="currentcolor" xmlns="http://www.w3.org/2000/svg">
<path d="M13 15.5H8C8 16.163 8.26339 16.7989 8.73223 17.2678C9.20107 17.7366 9.83696 18 10.5 18C11.163 18 11.7989 17.7366 12.2678 17.2678C12.7366 16.7989 13 16.163 13 15.5Z" stroke-width="1.75" stroke-linecap="round" stroke-linejoin="round"/>
<path d="M16.6498 12.4832C16.981 12.8149 17.1668 13.2645 17.1666 13.7332C17.1666 13.9652 17.1209 14.195 17.0321 14.4093C16.9433 14.6237 16.8132 14.8185 16.6491 14.9825C16.4851 15.1466 16.2903 15.2767 16.0759 15.3655C15.8616 15.4543 15.6318 15.5 15.3998 15.5H5.59981C5.36777 15.5001 5.138 15.4544 4.92362 15.3656C4.70924 15.2768 4.51445 15.1467 4.35037 14.9826C4.1863 14.8186 4.05616 14.6238 3.96739 14.4094C3.87862 14.195 3.83296 13.9652 3.83301 13.7332C3.83278 13.2645 4.01866 12.8149 4.34981 12.4832L5.49981 11.3332V8C5.49981 6.67392 6.02659 5.40215 6.96427 4.46447C7.90196 3.52678 9.17373 3 10.4998 3C11.8259 3 13.0977 3.52678 14.0353 4.46447C14.973 5.40215 15.4998 6.67392 15.4998 8V11.3332L16.6498 12.4832Z" stroke-width="1.75" stroke-linecap="round" stroke-linejoin="round"/>
</svg>
