<svg width="23" height="17" viewBox="0 0 23 17" fill="none" xmlns="http://www.w3.org/2000/svg">
<path d="M20.2461 0.75C20.7088 0.753976 21.1523 0.937466 21.4805 1.26172C21.8087 1.58624 21.9959 2.0262 22 2.48633C22.004 2.94657 21.8245 3.38951 21.502 3.71973L21.4287 3.79492H21.4053L9.32617 15.7383C8.99423 16.0664 8.54432 16.25 8.07617 16.25C7.60823 16.25 7.15902 16.0661 6.82715 15.7383H6.82617L0.750977 9.73047L0.74707 9.72754V9.72656C0.424937 9.39642 0.245958 8.95406 0.25 8.49414C0.254045 8.0339 0.44124 7.59412 0.769531 7.26953C1.09771 6.94518 1.54109 6.76179 2.00391 6.75781C2.40881 6.75439 2.80087 6.8887 3.11621 7.13574L3.24707 7.24805L3.25 7.25098L8.08691 12.0342L19 1.24414L19.0029 1.24121C19.3367 0.922488 19.7833 0.746088 20.2461 0.75Z" fill="white" stroke="white" stroke-width="0.5"/>
</svg>
