<svg width="15" height="14" viewBox="0 0 15 14" fill="none" xmlns="http://www.w3.org/2000/svg">
<path d="M5.32908 11.4957L10.75 6.0748L8.17517 3.49997L2.75425 8.92089C2.67955 8.99556 2.62653 9.08911 2.60083 9.19155L2 12.25L5.05783 11.6491C5.1605 11.6235 5.25442 11.5704 5.32908 11.4957ZM12.5 4.3248C12.7187 4.10602 12.8416 3.80933 12.8416 3.49997C12.8416 3.19061 12.7187 2.89392 12.5 2.67514L11.5748 1.74997C11.3561 1.53125 11.0594 1.40839 10.75 1.40839C10.4406 1.40839 10.1439 1.53125 9.92517 1.74997L9 2.67514L11.5748 5.24997L12.5 4.3248Z" fill="#333333"/>
</svg>
