<svg width="31" height="31" viewBox="0 0 31 31" fill="none" xmlns="http://www.w3.org/2000/svg">
<path opacity="0.65" fill-rule="evenodd" clip-rule="evenodd" d="M15.5 0C24.0591 0 31 6.94085 31 15.5C31 24.0591 24.0591 31 15.5 31C6.94085 31 0 24.0591 0 15.5C0 6.94085 6.94085 0 15.5 0ZM19.7613 10.4612C19.3707 10.0707 18.7376 10.0707 18.347 10.4612L15.5 13.3084L12.6529 10.4613C12.2624 10.0708 11.6293 10.0708 11.2387 10.4613L10.4613 11.2388C10.0708 11.6293 10.0708 12.2625 10.4613 12.653L13.3083 15.5L10.4613 18.3471C10.0707 18.7376 10.0707 19.3707 10.4613 19.7613L11.2387 20.5387C11.6293 20.9293 12.2624 20.9292 12.6529 20.5387L15.5 17.6917L18.3471 20.5387C18.7376 20.9293 19.3707 20.9293 19.7613 20.5387L20.5387 19.7613C20.9293 19.3707 20.9293 18.7376 20.5387 18.3471L17.6917 15.5L20.5387 12.6529C20.9293 12.2624 20.9293 11.6293 20.5387 11.2387L19.7613 10.4612Z" fill="#D04949"/>
</svg>
