<svg width="36" height="35" viewBox="0 0 36 35" fill="none" xmlns="http://www.w3.org/2000/svg">
<path d="M24.1199 15.3125C24.5973 15.3125 25.0551 15.5046 25.3927 15.8464C25.7303 16.1883 25.9199 16.6519 25.9199 17.1354C25.9199 17.6189 25.7303 18.0826 25.3927 18.4244C25.0551 18.7663 24.5973 18.9583 24.1199 18.9583H24.1055C23.6281 18.9583 23.1703 18.7663 22.8327 18.4244C22.4952 18.0826 22.3055 17.6189 22.3055 17.1354C22.3055 16.6519 22.4952 16.1883 22.8327 15.8464C23.1703 15.5046 23.6281 15.3125 24.1055 15.3125H24.1199Z" fill="#CCCCCC"/>
<path d="M24.8401 8.021C24.8401 7.15075 24.4987 6.31616 23.8911 5.7008C23.2835 5.08545 22.4594 4.73975 21.6001 4.73975H8.6401C7.7808 4.73975 6.95669 5.08545 6.34907 5.7008C5.74145 6.31616 5.4001 7.15075 5.4001 8.021V21.146C5.4001 22.0162 5.74145 22.8508 6.34907 23.4662C6.95669 24.0815 7.7808 24.4272 8.6401 24.4272H11.1601V26.9793C11.1601 27.8496 11.5015 28.6842 12.1091 29.2995C12.7167 29.9149 13.5408 30.2606 14.4001 30.2606H27.3601C28.2194 30.2606 29.0435 29.9149 29.6511 29.2995C30.2587 28.6842 30.6001 27.8496 30.6001 26.9793V13.8543C30.6001 12.9841 30.2587 12.1495 29.6511 11.5341C29.0435 10.9188 28.2194 10.5731 27.3601 10.5731H24.8401V8.021ZM13.3201 13.8543C13.3201 13.5642 13.4339 13.286 13.6364 13.0809C13.839 12.8758 14.1137 12.7606 14.4001 12.7606H27.3601C27.6465 12.7606 27.9212 12.8758 28.1238 13.0809C28.3263 13.286 28.4401 13.5642 28.4401 13.8543V23.9781L20.2782 19.6935C19.6855 19.382 19.0123 19.2636 18.3506 19.3545C17.6889 19.4453 17.0711 19.741 16.5817 20.201L13.3201 23.2693V13.8543ZM28.4401 26.9793C28.4401 27.5831 27.9563 28.0731 27.3601 28.0731H14.4001C14.1137 28.0731 13.839 27.9578 13.6364 27.7527C13.4339 27.5476 13.3201 27.2694 13.3201 26.9793V26.2545L18.0519 21.8052C18.2148 21.6518 18.4205 21.5531 18.6409 21.5226C18.8612 21.492 19.0855 21.5311 19.2831 21.6345L28.4401 26.4427V26.9793ZM22.6801 10.5731H14.4001C13.5408 10.5731 12.7167 10.9188 12.1091 11.5341C11.5015 12.1495 11.1601 12.9841 11.1601 13.8543V22.2397H8.6401C8.35366 22.2397 8.07896 22.1245 7.87642 21.9194C7.67388 21.7143 7.5601 21.4361 7.5601 21.146V8.021C7.5601 7.73092 7.67388 7.45272 7.87642 7.2476C8.07896 7.04248 8.35366 6.92725 8.6401 6.92725H21.6001C21.8865 6.92725 22.1612 7.04248 22.3638 7.2476C22.5663 7.45272 22.6801 7.73092 22.6801 8.021V10.5731Z" fill="#CCCCCC"/>
</svg>
