<svg viewBox="0 0 26 25" stroke="currentcolor" fill="none" stroke-width="2.5" xmlns="http://www.w3.org/2000/svg">
<path d="M3.54734 17.237C4.5812 19.2328 6.25834 20.8596 8.33238 21.8782C10.3912 22.8879 12.739 23.2287 15.0192 22.8489C17.3064 22.4647 19.4018 21.3841 20.9922 19.7688C22.597 18.1377 23.6188 16.0631 23.9109 13.843C24.2071 11.6177 23.7605 9.36001 22.6349 7.39098C21.5196 5.43694 19.7762 3.8766 17.6617 2.93993C15.5615 2.0114 13.2013 1.76235 10.9394 2.23056C8.67827 2.69841 6.82537 3.76247 5.29269 5.44488C5.10813 5.63156 4.39435 6.38526 3.80157 7.52282M7.50004 7.83317L3.08901 8.67321L2 4.33299M13.0001 8.99989V13.6668L16.6668 16.0002" stroke-linecap="round" stroke-linejoin="round"/>
</svg>
