<svg viewBox="0 0 25 25" stroke="transparent" fill="none" xmlns="http://www.w3.org/2000/svg">
<path d="M12.5 18.5C12.84 18.5 13.1252 18.3848 13.3556 18.1544C13.586 17.924 13.7008 17.6392 13.7 17.3V12.5C13.7 12.16 13.5848 11.8752 13.3544 11.6456C13.124 11.416 12.8392 11.3008 12.5 11.3C12.1608 11.2992 11.876 11.4144 11.6456 11.6456C11.4152 11.8768 11.3 12.1616 11.3 12.5V17.3C11.3 17.64 11.4152 17.9252 11.6456 18.1556C11.876 18.386 12.1608 18.5008 12.5 18.5ZM12.5 8.9C12.84 8.9 13.1252 8.7848 13.3556 8.5544C13.586 8.324 13.7008 8.0392 13.7 7.7C13.6992 7.3608 13.584 7.076 13.3544 6.8456C13.1248 6.6152 12.84 6.5 12.5 6.5C12.16 6.5 11.8752 6.6152 11.6456 6.8456C11.416 7.076 11.3008 7.3608 11.3 7.7C11.2992 8.0392 11.4144 8.3244 11.6456 8.5556C11.8768 8.7868 12.1616 8.9016 12.5 8.9ZM12.5 24.5C10.84 24.5 9.28 24.1848 7.82 23.5544C6.36 22.924 5.09 22.0692 4.01 20.99C2.93 19.9108 2.0752 18.6408 1.4456 17.18C0.816001 15.7192 0.500802 14.1592 0.500002 12.5C0.499202 10.8408 0.814401 9.2808 1.4456 7.82C2.0768 6.3592 2.9316 5.0892 4.01 4.01C5.0884 2.9308 6.3584 2.076 7.82 1.4456C9.2816 0.8152 10.8416 0.5 12.5 0.5C14.1584 0.5 15.7184 0.8152 17.18 1.4456C18.6416 2.076 19.9116 2.9308 20.99 4.01C22.0684 5.0892 22.9236 6.3592 23.5556 7.82C24.1876 9.2808 24.5024 10.8408 24.5 12.5C24.4976 14.1592 24.1824 15.7192 23.5544 17.18C22.9264 18.6408 22.0716 19.9108 20.99 20.99C19.9084 22.0692 18.6384 22.9244 17.18 23.5556C15.7216 24.1868 14.1616 24.5016 12.5 24.5ZM12.5 22.1C15.18 22.1 17.45 21.17 19.31 19.31C21.17 17.45 22.1 15.18 22.1 12.5C22.1 9.82 21.17 7.55 19.31 5.69C17.45 3.83 15.18 2.9 12.5 2.9C9.81999 2.9 7.55 3.83 5.69 5.69C3.83 7.55 2.9 9.82 2.9 12.5C2.9 15.18 3.83 17.45 5.69 19.31C7.55 21.17 9.81999 22.1 12.5 22.1Z" fill="#C2A3AC"/>
</svg>
