<svg width="10" height="12" viewBox="0 0 10 12" fill="none" xmlns="http://www.w3.org/2000/svg">
<path d="M7.5 4.25V3.25C7.5 2.58696 7.23661 1.95107 6.76777 1.48223C6.29893 1.01339 5.66304 0.75 5 0.75C4.33696 0.75 3.70107 1.01339 3.23223 1.48223C2.76339 1.95107 2.5 2.58696 2.5 3.25V4.25C2.10218 4.25 1.72064 4.40804 1.43934 4.68934C1.15804 4.97064 1 5.35218 1 5.75V9.25C1 9.64782 1.15804 10.0294 1.43934 10.3107C1.72064 10.592 2.10218 10.75 2.5 10.75H7.5C7.89782 10.75 8.27936 10.592 8.56066 10.3107C8.84196 10.0294 9 9.64782 9 9.25V5.75C9 5.35218 8.84196 4.97064 8.56066 4.68934C8.27936 4.40804 7.89782 4.25 7.5 4.25ZM3.5 3.25C3.5 2.85218 3.65804 2.47064 3.93934 2.18934C4.22064 1.90804 4.60218 1.75 5 1.75C5.39782 1.75 5.77936 1.90804 6.06066 2.18934C6.34196 2.47064 6.5 2.85218 6.5 3.25V4.25H3.5V3.25ZM8 9.25C8 9.38261 7.94732 9.50979 7.85355 9.60355C7.75979 9.69732 7.63261 9.75 7.5 9.75H2.5C2.36739 9.75 2.24021 9.69732 2.14645 9.60355C2.05268 9.50979 2 9.38261 2 9.25V5.75C2 5.61739 2.05268 5.49021 2.14645 5.39645C2.24021 5.30268 2.36739 5.25 2.5 5.25H7.5C7.63261 5.25 7.75979 5.30268 7.85355 5.39645C7.94732 5.49021 8 5.61739 8 5.75V9.25Z" fill="currentcolor" stroke="currentcolor" stroke-width="0.75"/>
</svg>
