<svg viewBox="0 0 25 25" fill="none" stroke-width="2.5" xmlns="http://www.w3.org/2000/svg">
<path d="M2 12.0159V18.888C2 20.3272 2 21.0468 2.28612 21.5981C2.53812 22.0812 2.93844 22.4744 3.43325 22.7199C3.99369 23 4.72869 23 6.19606 23H18.8039C20.2713 23 21.005 23 21.5654 22.7199C22.0596 22.474 22.4616 22.0813 22.7139 21.5981C23 21.0481 23 20.3298 23 18.8932V12.0159C23 11.3297 23 10.9866 22.9147 10.6666C22.8391 10.3838 22.7149 10.1157 22.5472 9.8738C22.3569 9.60009 22.0944 9.37265 21.5654 8.92162L15.2654 3.52464C14.2863 2.68554 13.7954 2.26535 13.2442 2.10601C12.7586 1.96466 12.2414 1.96466 11.7545 2.10601C11.2033 2.26535 10.715 2.68426 9.73588 3.52207L3.43456 8.92162C2.90694 9.37393 2.64313 9.60009 2.45413 9.87251C2.28586 10.1147 2.16113 10.3833 2.08531 10.6666C2 10.9853 2 11.3297 2 12.0159Z" stroke-linecap="round" stroke-linejoin="round"/>
</svg>
