<svg width="47" height="47" fill="none" version="1.1" viewBox="0 0 47 47" xmlns="http://www.w3.org/2000/svg"><circle cx="23.5" cy="23.5" r="22" fill="var(--theme-90)"/><circle cx="23.5" cy="23.5" r="22.75" stroke="var(--theme-75)" stroke-width="1.5"/><path d="m19.75 19c0-1.6547 1.3453-3 3-3h1.5c1.6547 0 3 1.3453 3 3v0.1687c0 1.0219-0.5203 1.9735-1.3781 2.5219l-1.9782 1.2703c-0.5808 0.3734-1.0585 0.8867-1.3894 1.4928-0.3309 0.606-0.5043 1.2855-0.5043 1.976v0.0656c0 0.8297 0.6703 1.5 1.5 1.5s1.5-0.6703 1.5-1.5v-0.0656c0-0.3844 0.1969-0.7407 0.5156-0.9469l1.9781-1.2703c1.7157-1.1063 2.7563-3.0047 2.7563-5.0485v-0.1687c0-3.3141-2.6859-6-6-6h-1.5c-3.3141 0.0047-6 2.6906-6 6.0047 0 0.8297 0.6703 1.5 1.5 1.5s1.5-0.6703 1.5-1.5zm3.75 15c0.4973 0 0.9742-0.1976 1.3258-0.5492 0.3517-0.3516 0.5492-0.8285 0.5492-1.3258s-0.1975-0.9742-0.5492-1.3258c-0.3516-0.3517-0.8285-0.5492-1.3258-0.5492s-0.9742 0.1975-1.3258 0.5492c-0.3517 0.3516-0.5492 0.8285-0.5492 1.3258s0.1975 0.9742 0.5492 1.3258c0.3516 0.3516 0.8285 0.5492 1.3258 0.5492z" fill="var(--theme-70)"/></svg>
