<svg viewBox="0 0 26 25" fill="none" stroke-width="2.5" xmlns="http://www.w3.org/2000/svg">
<path d="M2 18.8C2 17.183 2 16.3745 2.3817 15.7802C2.5951 15.4473 2.8877 15.168 3.2364 14.9643C3.8579 14.6 4.706 14.6 6.4 14.6C8.094 14.6 8.941 14.6 9.5636 14.9643C9.9123 15.168 10.2049 15.4473 10.4183 15.7802C10.8 16.3734 10.8 17.183 10.8 18.8C10.8 20.417 10.8 21.2255 10.4183 21.8208C10.2049 22.1526 9.9123 22.4319 9.5636 22.6356C8.9421 23 8.094 23 6.4 23C4.706 23 3.859 23 3.2364 22.6356C2.88809 22.4323 2.59519 22.1531 2.3817 21.8208C2 21.2255 2 20.417 2 18.8ZM15.2 18.8C15.2 17.183 15.2 16.3745 15.5817 15.7802C15.7951 15.4473 16.0877 15.168 16.4364 14.9643C17.0579 14.6 17.906 14.6 19.6 14.6C21.294 14.6 22.141 14.6 22.7647 14.9643C23.1123 15.168 23.4049 15.4473 23.6183 15.7802C24 16.3734 24 17.183 24 18.8C24 20.417 24 21.2255 23.6183 21.8208C23.4048 22.1527 23.1124 22.4318 22.7647 22.6356C22.141 23 21.294 23 19.6 23C17.906 23 17.059 23 16.4364 22.6356C16.0881 22.4323 15.7952 22.1531 15.5817 21.8208C15.2 21.2255 15.2 20.417 15.2 18.8ZM2 6.2C2 4.583 2 3.7745 2.3817 3.1802C2.5951 2.84735 2.8877 2.56805 3.2364 2.36435C3.8579 2 4.706 2 6.4 2C8.094 2 8.941 2 9.5636 2.36435C9.9123 2.56805 10.2049 2.84735 10.4183 3.1802C10.8 3.77345 10.8 4.583 10.8 6.2C10.8 7.817 10.8 8.6255 10.4183 9.2198C10.2049 9.55265 9.9123 9.83195 9.5636 10.0356C8.9421 10.4 8.094 10.4 6.4 10.4C4.706 10.4 3.859 10.4 3.2364 10.0356C2.88796 9.832 2.59505 9.5524 2.3817 9.2198C2 8.62655 2 7.817 2 6.2ZM15.2 6.2C15.2 4.583 15.2 3.7745 15.5817 3.1802C15.7951 2.84735 16.0877 2.56805 16.4364 2.36435C17.0579 2 17.906 2 19.6 2C21.294 2 22.141 2 22.7647 2.36435C23.1123 2.56805 23.4049 2.84735 23.6183 3.1802C24 3.77345 24 4.583 24 6.2C24 7.817 24 8.6255 23.6183 9.2198C23.4049 9.55265 23.1123 9.83195 22.7647 10.0356C22.141 10.4 21.294 10.4 19.6 10.4C17.906 10.4 17.059 10.4 16.4364 10.0356C16.088 9.832 15.7951 9.5524 15.5817 9.2198C15.2 8.62655 15.2 7.817 15.2 6.2Z" stroke-linecap="round" stroke-linejoin="round"/>
</svg>
