<svg width="31" height="31" viewBox="0 0 31 31" fill="var(--theme-40)" xmlns="http://www.w3.org/2000/svg">
<path fill-rule="evenodd" clip-rule="evenodd" d="M6.49929 14.7791C6.49929 15.3702 6.00809 15.8605 5.41576 15.8605C4.82343 15.8605 4.33223 15.3702 4.33223 14.7791C4.33223 8.18977 9.41759 2.75395 15.8899 2.20605V1.0814C15.8899 0.490233 16.3811 0 16.9734 0C17.5657 0 18.0569 0.490233 18.0569 1.0814V2.20605C24.5292 2.75395 29.6145 8.18977 29.6145 14.7791C29.6145 15.3702 29.1233 15.8605 28.531 15.8605C27.9387 15.8605 27.4475 15.3702 27.4475 14.7791C27.4475 9.01163 22.7522 4.32558 16.9734 4.32558C11.1946 4.32558 6.49929 9.01163 6.49929 14.7791ZM3.96961 17.3023H29.9165C30.5088 17.3023 31 17.7926 31 18.3837C31 18.9749 30.5088 19.4651 29.9165 19.4651H27.5038L23.762 23.5744C22.1151 25.3623 21.2483 26.2995 20.0636 26.8619C18.8645 27.4386 17.5643 27.5251 15.195 27.6693L10.4997 27.9721C9.53172 28.0298 9.08386 28.073 8.78047 28.2028C8.49153 28.3326 8.20259 28.6209 7.48024 29.3419L6.13667 30.6828C5.91996 30.8991 5.64547 31 5.37097 31C5.09648 31 4.82199 30.8991 4.60528 30.6828C4.40377 30.4793 4.29077 30.2047 4.29077 29.9186C4.29077 29.6325 4.40377 29.3579 4.60528 29.1544L5.94885 27.8135C6.74344 27.0205 7.22019 26.5446 7.8992 26.2419C8.56377 25.9391 9.24278 25.8814 10.3841 25.8237L15.0794 25.5209L15.3279 25.5036C17.3302 25.371 18.3617 25.3018 19.1534 24.9153C19.9509 24.5448 20.6502 23.7835 22.0284 22.2825L22.0862 22.2191L24.6 19.4651H22.4474L20.1792 21.7288C20.0973 21.8057 20.0289 21.8711 19.974 21.9249C19.9017 21.9982 19.8255 22.0675 19.7458 22.1326C19.139 22.666 18.3589 22.9977 17.5065 23.0553C17.4053 23.0698 17.2464 23.0698 16.943 23.0698H11.8866C11.2943 23.0698 10.8031 22.5795 10.8031 21.9884C10.8031 21.3972 11.2943 20.907 11.8866 20.907H15.8306C15.6862 20.2005 15.1372 19.6526 14.4148 19.5084C14.2414 19.4651 13.9092 19.4651 13.3457 19.4651H12.2189C10.8175 19.4651 10.1096 19.4651 9.53172 19.6093C9.06941 19.7102 8.6649 19.8833 8.31817 20.0995C7.78363 20.4167 7.29243 20.907 6.29558 21.9019L1.8459 26.3572C1.42694 26.7753 0.733478 26.7753 0.314514 26.3572C0.113007 26.1537 0 25.8791 0 25.593C0 25.3069 0.113007 25.0323 0.314514 24.8288L4.7642 20.3879C5.12537 20.0274 5.42876 19.7247 5.70326 19.4651H3.96961C3.37728 19.4651 2.88608 18.9749 2.88608 18.3837C2.88608 17.7926 3.37728 17.3023 3.96961 17.3023ZM18.5683 20.2956L18.6622 20.2005L19.399 19.4651H17.6076C17.7665 19.7823 17.8965 20.1284 17.9688 20.4888C17.9977 20.5609 18.0121 20.6474 18.0121 20.7195C18.1421 20.6474 18.2577 20.5753 18.3733 20.4744C18.4437 20.4209 18.5089 20.3611 18.5683 20.2956Z"/>
</svg>
