<svg width="12" height="15" viewBox="0 0 12 15" fill="var(--points-color)" xmlns="http://www.w3.org/2000/svg">
<path fill-rule="evenodd" clip-rule="evenodd" d="M4.9682 0.906559C5.06738 0.779831 5.19375 0.677412 5.33782 0.606997C5.48188 0.536582 5.6399 0.5 5.8 0.5C5.9601 0.5 6.11812 0.536582 6.26218 0.606997C6.40625 0.677412 6.53262 0.779831 6.6318 0.906559L11.2962 6.86721C11.493 7.11861 11.6 7.42952 11.6 7.74977C11.6 8.07003 11.493 8.38094 11.2962 8.63233L6.6318 14.593C6.53263 14.7198 6.40622 14.8224 6.26209 14.8929C6.11795 14.9634 5.95984 15 5.79965 15C5.63945 15 5.48134 14.9634 5.33721 14.8929C5.19307 14.8224 5.06667 14.7198 4.96749 14.593L0.303762 8.63305C0.10701 8.38165 0 8.07074 0 7.75049C0 7.43024 0.10701 7.11932 0.303762 6.86793L4.9682 0.906559Z"/>
</svg>
