<svg viewBox="0 0 15 16" fill="none" xmlns="http://www.w3.org/2000/svg">
<path d="M5.20283 1.26057C6.79184 0.749456 8.5062 0.783168 10.0739 1.35627C10.2806 1.43194 10.4441 1.59504 10.5202 1.80158C10.5962 2.00806 10.5776 2.2379 10.4694 2.42951C10.3625 2.61916 10.3071 2.83385 10.3093 3.05158C10.3115 3.26939 10.3713 3.48319 10.4821 3.67072C10.593 3.85809 10.7514 4.01304 10.9411 4.11994C11.1308 4.22679 11.3455 4.28235 11.5632 4.2801H11.6384C11.8634 4.2802 12.0771 4.38121 12.2194 4.55549C12.3617 4.72983 12.4186 4.95906 12.3737 5.17951C12.3463 5.31398 12.3485 5.4533 12.3806 5.58674C12.4128 5.72028 12.4744 5.84568 12.5603 5.95295C12.6461 6.0601 12.7545 6.14715 12.8776 6.20783C12.9987 6.26746 13.1314 6.29986 13.2663 6.30354C13.342 6.30285 13.4333 6.29301 13.5173 6.27326C13.5592 6.26336 13.5941 6.25311 13.6198 6.24299C13.6393 6.23531 13.6494 6.22886 13.6521 6.22736L13.7312 6.18147C13.9206 6.08627 14.1436 6.0753 14.3435 6.15412C14.5718 6.2443 14.7422 6.44062 14.7985 6.67951C15.1811 8.30433 15.0108 10.0112 14.3142 11.5281C13.6175 13.0451 12.4336 14.2859 10.9519 15.0545C9.47011 15.8231 7.77379 16.0754 6.13252 15.7713C4.49129 15.4671 2.99824 14.6233 1.89033 13.3748C0.78252 12.1263 0.123077 10.5435 0.0163084 8.87775C-0.0903752 7.21196 0.361993 5.55829 1.30146 4.17854C2.24099 2.79885 3.61379 1.77176 5.20283 1.26057ZM7.52217 6.37287C6.40402 6.37287 5.49678 7.28016 5.49678 8.39826C5.49701 9.51616 6.40416 10.4227 7.52217 10.4227C8.63999 10.4225 9.54635 9.51603 9.54658 8.39826C9.54658 7.2803 8.64013 6.37309 7.52217 6.37287Z" fill="var(--points-color)"/>
</svg>
