<svg viewBox="0 0 24 25" fill="none" stroke-width="2.5" xmlns="http://www.w3.org/2000/svg">
<path d="M11.9994 12.5C15.1609 12.5 17.7238 10.1495 17.7238 7.25C17.7238 4.3505 15.1609 2 11.9994 2C8.83783 2 6.2749 4.3505 6.2749 7.25C6.2749 10.1495 8.83783 12.5 11.9994 12.5Z" />
<path d="M17.7245 14.6001H18.1275C18.9645 14.6003 19.7726 14.8808 20.4 15.3889C21.0274 15.8971 21.4309 16.5978 21.5347 17.3595L21.9823 20.6397C22.0226 20.9352 21.9939 21.2352 21.8981 21.5197C21.8023 21.8043 21.6416 22.0669 21.4266 22.2901C21.2117 22.5133 20.9475 22.6921 20.6515 22.8145C20.3554 22.9369 20.0344 23.0002 19.7097 23.0001H4.29029C3.96557 23.0002 3.64456 22.9369 3.34855 22.8145C3.05254 22.6921 2.7883 22.5133 2.57338 22.2901C2.35845 22.0669 2.19775 21.8043 2.10194 21.5197C2.00613 21.2352 1.97741 20.9352 2.01767 20.6397L2.46418 17.3595C2.56802 16.5974 2.97184 15.8964 3.59972 15.3882C4.2276 14.8801 5.03627 14.5998 5.87367 14.6001H6.27553" stroke-linecap="round" stroke-linejoin="round"/>
</svg>
