<svg width="31" height="31" viewBox="0 0 31 31" fill="none" xmlns="http://www.w3.org/2000/svg">
<path opacity="0.65" d="M26.0109 0C26.8466 6.6934e-05 27.6542 0.299573 28.2852 0.843467C28.9162 1.38736 29.3283 2.1391 29.4458 2.9605L29.4752 3.22917L30.9932 27.3403C31.0505 28.245 30.7463 29.1357 30.1464 29.8191C29.5466 30.5026 28.6996 30.9238 27.7891 30.9914L27.5288 31H3.46951C2.55651 31.0001 1.68028 30.6429 1.0308 30.0058C0.381324 29.3688 0.010956 28.5032 0 27.5969L0.00520431 27.3403L1.52312 3.22917C1.57532 2.4009 1.92698 1.61919 2.51343 1.0278C3.09988 0.436408 3.88169 0.0751046 4.71507 0.0103334L4.98569 0H26.0109ZM20.7026 6.88889C20.2777 6.88895 19.8676 7.04381 19.5501 7.32412C19.2325 7.60443 19.0297 7.99068 18.98 8.40961L18.9678 8.61111C18.9678 9.52463 18.6023 10.4007 17.9516 11.0467C17.301 11.6927 16.4185 12.0556 15.4983 12.0556C14.5781 12.0556 13.6957 11.6927 13.045 11.0467C12.3943 10.4007 12.0288 9.52463 12.0288 8.61111C12.0288 8.15435 11.846 7.7163 11.5207 7.39332C11.1954 7.07034 10.7541 6.88889 10.294 6.88889C9.83396 6.88889 9.39271 7.07034 9.06738 7.39332C8.74205 7.7163 8.55929 8.15435 8.55929 8.61111C8.55929 10.4382 9.29036 12.1904 10.5917 13.4823C11.893 14.7742 13.658 15.5 15.4983 15.5C17.3387 15.5 19.1036 14.7742 20.4049 13.4823C21.7063 12.1904 22.4373 10.4382 22.4373 8.61111C22.4373 8.15435 22.2546 7.7163 21.9292 7.39332C21.6039 7.07034 21.1627 6.88889 20.7026 6.88889Z" fill="#4998D0"/>
</svg>
