<svg width="30" height="48" viewBox="0 0 30 48" fill="currentcolor" xmlns="http://www.w3.org/2000/svg">
<path d="M7.5 15.0001C7.5 11.6907 10.1906 9.0001 13.5 9.0001H16.5C19.8094 9.0001 22.5 11.6907 22.5 15.0001V15.3376C22.5 17.3813 21.4594 19.2845 19.7437 20.3813L15.7875 22.922C14.6259 23.6688 13.6704 24.6954 13.0086 25.9075C12.3469 27.1196 12.0001 28.4785 12 29.8595V29.9907C12 31.6501 13.3406 32.9907 15 32.9907C16.6594 32.9907 18 31.6501 18 29.9907V29.8595C18 29.0907 18.3937 28.3782 19.0312 27.9657L22.9875 25.4251C26.4187 23.2126 28.5 19.4157 28.5 15.3282V14.9907C28.5 8.3626 23.1281 2.99072 16.5 2.99072H13.5C6.87187 3.0001 1.5 8.37197 1.5 15.0001C1.5 16.6595 2.84062 18.0001 4.5 18.0001C6.15937 18.0001 7.5 16.6595 7.5 15.0001ZM15 45.0001C15.9946 45.0001 16.9484 44.605 17.6516 43.9017C18.3549 43.1985 18.75 42.2447 18.75 41.2501C18.75 40.2555 18.3549 39.3017 17.6516 38.5984C16.9484 37.8952 15.9946 37.5001 15 37.5001C14.0054 37.5001 13.0516 37.8952 12.3483 38.5984C11.6451 39.3017 11.25 40.2555 11.25 41.2501C11.25 42.2447 11.6451 43.1985 12.3483 43.9017C13.0516 44.605 14.0054 45.0001 15 45.0001Z"/>
</svg>
