<svg viewBox="0 0 24 24" stroke="none" fill="currentcolor" xmlns="http://www.w3.org/2000/svg">
<path fill-rule="evenodd" clip-rule="evenodd" d="M3.5726 7.5949C3.51742 7.60096 3.46284 7.6116 3.40942 7.62672L3.28265 7.6626L3.10687 7.73291L3.0053 7.77215C2.9585 7.79024 2.91312 7.81182 2.86956 7.83671L2.79828 7.87744L2.58734 7.99072L2.43109 8.1001L2.26703 8.21338L2.1225 8.34229L1.95453 8.49854L1.76703 8.69775L1.64594 8.854L1.49359 9.09229L1.3764 9.30322L1.23969 9.58838L1.14594 9.8501L1.07562 10.1313L1.02094 10.3813L0.981873 10.7017V11.2462V19.147V20.061V20.4478L1.0014 20.6626L1.04047 20.9634L1.10297 21.2563L1.23187 21.6274L1.3725 21.9438L1.52318 22.195C1.54769 22.2358 1.5751 22.2749 1.60518 22.3118L1.91937 22.6978L2.16937 22.9438L2.40765 23.1274L2.59125 23.2524L3.03101 23.4757C3.08149 23.5013 3.13406 23.5226 3.18815 23.5393L3.48578 23.6313L3.71234 23.686L3.935 23.7212L4.13812 23.7407H4.47797H7.38812H7.39067C7.45652 23.7407 7.52277 23.7341 7.58734 23.7212L7.83344 23.6821L8.08344 23.6196L8.31 23.5493L8.48969 23.4751L8.74359 23.354L8.91472 23.2538C8.9778 23.2168 9.05601 23.2172 9.1187 23.2549L9.32953 23.3813L9.59906 23.5063L10.0209 23.6431L10.2645 23.6923C10.3598 23.7115 10.4564 23.7238 10.5535 23.729L10.8452 23.7446H14.2084L14.4819 23.7212L14.7475 23.686L15.0327 23.6157L15.31 23.5298L15.5248 23.4282L15.7983 23.2837L15.8558 23.2514C15.9191 23.2159 15.9968 23.2175 16.0586 23.2557L16.142 23.3071L16.3803 23.4282L16.728 23.5649L16.9531 23.6388C17.0019 23.6548 17.052 23.667 17.1027 23.6754L17.382 23.7212L17.6632 23.7407H17.9679H18.339H20.4897H20.8178L21.0444 23.7212L21.267 23.686L21.4897 23.6274L21.6694 23.5767L21.9389 23.4751L22.1772 23.3657L22.392 23.2407L22.6264 23.0845L22.8452 22.9048L23.0405 22.7173L23.2123 22.5298L23.4116 22.2681L23.56 22.0181L23.6928 21.7603L23.7827 21.5181L23.8608 21.2642L23.9155 21.0767L23.9428 20.9634L23.9623 20.8149L23.9819 20.3933V20.2485V17.1196V16.3462V16.0103V14.7681V13.9243V13.2837V12.9673L23.9545 12.6274L23.8803 12.2524L23.6928 11.7251L23.4702 11.3228L23.2436 11.0063L23.0405 10.7759L22.7123 10.4712L22.4155 10.2642L22.0522 10.0532L21.7592 9.93994L21.4858 9.86182L21.1303 9.7876L20.7983 9.74072H20.4819H17.6741C17.5636 9.74072 17.4741 9.65118 17.4741 9.54072V4.1626L17.4506 3.7876L17.392 3.42041L17.2983 3.06494L17.1797 2.75398C17.1624 2.70874 17.1419 2.66482 17.1183 2.62255L17.0053 2.42041L16.8783 2.20866C16.8536 2.16759 16.8261 2.12834 16.7958 2.09122L16.6342 1.89307L16.5243 1.77004C16.4883 1.72973 16.449 1.6924 16.407 1.65843L16.267 1.54541L16.0912 1.40088L15.9662 1.31104L15.7123 1.15088L15.4936 1.04541L15.31 0.971191L15.0912 0.893066L14.8256 0.818848L14.4858 0.76416L14.2066 0.744629H13.8082H12.023H11.2261L10.6441 0.754395L10.5128 0.760705C10.465 0.763005 10.4174 0.768741 10.3703 0.777869L10.2925 0.792969L10.1459 0.822754L9.89203 0.88916L9.70453 0.95166L9.50922 1.02979L9.30609 1.12354L9.07953 1.25635L8.7475 1.49854L8.49359 1.73291L8.35135 1.88095C8.31862 1.91503 8.28833 1.95138 8.26074 1.98974L8.07172 2.25244L7.9975 2.36963L7.86469 2.6001L7.73578 2.89307L7.6225 3.26025L7.56232 3.50697C7.55037 3.55596 7.54215 3.60579 7.53771 3.65603L7.48578 4.24463V7.29463C7.48578 7.40509 7.39624 7.49463 7.28578 7.49463H6.48578H5.48578H4.48578L3.5726 7.5949ZM16.9428 20.2524V13.2524V13.1132C16.9428 13.0526 16.9501 12.9922 16.9644 12.9333C16.9734 12.8961 16.9853 12.8597 16.9998 12.8243L17.0065 12.808C17.0291 12.7528 17.0567 12.6999 17.0889 12.6497L17.0995 12.6333C17.1304 12.5853 17.1663 12.5407 17.2067 12.5003C17.2545 12.4524 17.3083 12.4109 17.3666 12.3765L17.4116 12.3501C17.4687 12.3215 17.5286 12.2988 17.5903 12.2824L17.6147 12.2759C17.6796 12.2603 17.746 12.2524 17.8128 12.2524H20.4819H20.6427C20.6787 12.2524 20.7146 12.2551 20.7502 12.2605C20.8183 12.2707 20.8847 12.2906 20.9473 12.3196L20.9557 12.3235C20.9939 12.3412 21.0307 12.362 21.0656 12.3856L21.0749 12.3918C21.1299 12.429 21.1806 12.4722 21.226 12.5205C21.2611 12.5579 21.2929 12.5982 21.3211 12.641C21.363 12.7046 21.3966 12.7733 21.4211 12.8455L21.442 12.9072C21.453 12.9394 21.4614 12.9724 21.4674 13.0058C21.4744 13.0452 21.478 13.085 21.478 13.125V13.2524V20.2563V20.4204C21.478 20.4826 21.4687 20.5444 21.4504 20.6038L21.4467 20.6157L21.3959 20.7368L21.3645 20.7925C21.3283 20.8568 21.2851 20.9168 21.2356 20.9715L21.2006 21.0103C21.1462 21.0595 21.0856 21.1016 21.0204 21.1354L21.0131 21.1392L20.9441 21.1726C20.9043 21.1919 20.8625 21.2068 20.8194 21.2169C20.7742 21.2275 20.728 21.2329 20.6815 21.2329H20.6069H17.8452H17.826C17.7531 21.2329 17.6803 21.2249 17.6091 21.2091L17.5756 21.2017L17.4816 21.1703C17.4196 21.1497 17.3611 21.1199 17.3079 21.0819C17.2704 21.055 17.2357 21.0243 17.2046 20.9902L17.1811 20.9644C17.1473 20.9273 17.1166 20.8875 17.0894 20.8454C17.0594 20.7992 17.0338 20.7503 17.0126 20.6994L16.978 20.6157C16.9546 20.5302 16.9428 20.4419 16.9428 20.3532V20.2524ZM10.0053 18.2563V19.2485V20.3341C10.0053 20.3941 10.0107 20.454 10.0214 20.513L10.0287 20.5532L10.0495 20.6243C10.0669 20.6835 10.0904 20.7408 10.1196 20.7951C10.1449 20.8421 10.1744 20.8867 10.2077 20.9283L10.2235 20.948C10.2525 20.9842 10.2841 21.0183 10.3181 21.0499L10.338 21.0683C10.3635 21.0921 10.3911 21.1136 10.4203 21.1328C10.4664 21.1629 10.5162 21.1869 10.5686 21.2039L10.577 21.2066C10.6306 21.2241 10.6861 21.2349 10.7423 21.2388L10.9389 21.2524H13.9155L14.1114 21.241C14.2043 21.2356 14.2959 21.2173 14.3837 21.1866L14.4077 21.1782L14.5522 21.104L14.6163 21.059C14.6696 21.0215 14.7174 20.9766 14.7581 20.9257C14.7797 20.8988 14.7991 20.8703 14.8164 20.8405L14.8411 20.7979C14.8646 20.7572 14.8851 20.7149 14.9023 20.6712L14.9044 20.666C14.9247 20.6144 14.9402 20.5609 14.9506 20.5065C14.961 20.4518 14.9662 20.3963 14.9662 20.3407V20.2446V4.17414C14.9662 4.11709 14.961 4.06015 14.9506 4.00405C14.9351 3.92004 14.9081 3.83856 14.8704 3.7619L14.8556 3.73188C14.8253 3.67029 14.7877 3.61261 14.7435 3.56008C14.6917 3.49853 14.6315 3.44464 14.5646 3.40003L14.5516 3.39139C14.5027 3.35874 14.4504 3.33127 14.3958 3.30941C14.3207 3.2794 14.2418 3.26023 14.1614 3.2525L14.0795 3.24463H11.4858H11.0209L10.7709 3.26416L10.665 3.27717C10.588 3.28662 10.5139 3.31211 10.4475 3.35199C10.4236 3.36633 10.4008 3.38246 10.3793 3.40024L10.2983 3.46729L10.2832 3.48189C10.218 3.54478 10.1617 3.61622 10.1158 3.69427L10.1069 3.70947L10.0729 3.78794C10.0539 3.8319 10.0388 3.87743 10.0277 3.92403C10.0128 3.98651 10.0053 4.05051 10.0053 4.11473V4.26001V17.2485V18.2563ZM5.47797 21.2485H4.48187H4.34443C4.30073 21.2485 4.25712 21.2446 4.21413 21.2368C4.17136 21.229 4.12937 21.2174 4.08866 21.2022L4.02484 21.1782L3.95627 21.1418C3.9187 21.1218 3.88269 21.0991 3.84853 21.0737C3.80213 21.0393 3.75936 21.0003 3.72088 20.9572L3.68109 20.9126L3.65965 20.8822C3.61163 20.8142 3.5723 20.7404 3.54256 20.6627L3.53656 20.647L3.52073 20.5784C3.50789 20.5227 3.5014 20.4658 3.5014 20.4087V20.0142V19.5259V10.8462C3.5014 10.7761 3.50874 10.7061 3.52329 10.6375L3.52875 10.6118L3.5639 10.522L3.61859 10.4165L3.63897 10.3884C3.67996 10.3318 3.72677 10.2796 3.77863 10.2328L3.82172 10.1938L3.85778 10.1643C3.89094 10.1372 3.92681 10.1136 3.96483 10.0938C3.99178 10.0798 4.01972 10.0678 4.04843 10.0578L4.10687 10.0376L4.1399 10.0308C4.20625 10.0171 4.27382 10.0103 4.34156 10.0103H4.39203H4.54047H7.20062L7.28023 10.0213C7.32085 10.027 7.36099 10.0357 7.40029 10.0473L7.41633 10.0521C7.46249 10.0658 7.50702 10.0846 7.54912 10.1079C7.60041 10.1364 7.64769 10.1716 7.68971 10.2126L7.78265 10.3032L7.78718 10.3089C7.84379 10.3803 7.89039 10.4591 7.92566 10.5431L7.95453 10.6118L7.95806 10.624C7.98422 10.7144 7.9975 10.808 7.9975 10.9021V11.0532V20.2446V20.3392C7.9975 20.401 7.99176 20.4627 7.98037 20.5235L7.97406 20.5571L7.95985 20.614C7.94851 20.6593 7.93332 20.7036 7.91445 20.7464C7.89433 20.792 7.87012 20.8357 7.8421 20.8769L7.81781 20.9126L7.74359 20.9985C7.69955 21.0426 7.64942 21.0801 7.59474 21.1099L7.59125 21.1118L7.51312 21.1587L7.43109 21.1978L7.36078 21.2251C7.30636 21.2406 7.25003 21.2485 7.19343 21.2485H5.47797Z"/>
</svg>
