<svg width="24" height="24" viewBox="0 0 24 24" fill="none" xmlns="http://www.w3.org/2000/svg">
<path d="M14.861 3.05624C13.0385 2.57489 11.1119 2.66178 9.34015 3.30537C7.79992 3.86493 6.44056 4.8223 5.39631 6.07393L5.389 5.01732C5.387 4.72734 5.26974 4.44979 5.06335 4.24611C4.85681 4.04241 4.57779 3.92915 4.28771 3.93116C3.99764 3.93317 3.7202 4.05028 3.51651 4.25681C3.31296 4.46333 3.19955 4.74248 3.20156 5.03245L3.23393 9.713C3.23527 9.90616 3.39284 10.0623 3.58596 10.0612L8.26749 10.0288C8.55749 10.0268 8.83501 9.90956 9.03869 9.70312C9.24233 9.49664 9.35558 9.21747 9.35365 8.92748C9.35164 8.63746 9.23445 8.35997 9.02799 8.15628C8.82146 7.95258 8.54244 7.83932 8.25236 7.84133L6.78462 7.85148C7.61713 6.70451 8.77794 5.83106 10.119 5.35082C11.6067 4.81807 13.2306 4.79947 14.73 5.29841C16.2294 5.79741 17.5182 6.78526 18.3902 8.10324C19.2621 9.42127 19.6665 10.9938 19.5392 12.569C19.412 14.1441 18.7605 15.631 17.6885 16.7919C16.6164 17.9528 15.1854 18.7205 13.6254 18.9724C12.0653 19.2242 10.4657 18.9453 9.08269 18.1806C7.69971 17.4158 6.61271 16.2098 5.99641 14.7546C5.94268 14.6212 5.86327 14.4995 5.76249 14.3968C5.66047 14.2929 5.53868 14.2104 5.40436 14.1541C5.27001 14.0979 5.12556 14.0689 4.97993 14.0692C4.83424 14.0695 4.68989 14.0993 4.55572 14.1561C4.42156 14.2129 4.29965 14.2954 4.19802 14.3998C4.09637 14.5042 4.01642 14.6281 3.96323 14.7637C3.91006 14.8994 3.88447 15.0444 3.88805 15.1901C3.8916 15.3338 3.92536 15.475 3.9837 15.6064L3.98273 15.6074C4.59534 17.0535 5.56584 18.3199 6.80318 19.2872C8.04077 20.2545 9.50478 20.8906 11.0563 21.1357C12.6078 21.3809 14.196 21.2273 15.6715 20.6887C17.147 20.1501 18.4615 19.2448 19.4903 18.0578C20.519 16.8707 21.228 15.4409 21.5514 13.9038C21.8749 12.3666 21.8019 10.7723 21.3387 9.27134C20.8756 7.77043 20.0375 6.41178 18.9041 5.32422C17.7708 4.23681 16.3794 3.45709 14.861 3.05624Z" fill="url(#paint0_linear_8446_3438)" stroke="url(#paint1_linear_8446_3438)" stroke-width="0.5"/>
<defs>
<linearGradient id="paint0_linear_8446_3438" x1="13.3377" y1="2.99353" x2="13.4622" y2="20.9931" gradientUnits="userSpaceOnUse">
<stop stop-color="var(--theme-main-light)"/>
<stop offset="1" stop-color="var(--theme-main)"/>
</linearGradient>
<linearGradient id="paint1_linear_8446_3438" x1="13.3377" y1="2.99353" x2="13.4622" y2="20.9931" gradientUnits="userSpaceOnUse">
<stop stop-color="var(--theme-main-light)"/>
<stop offset="1" stop-color="var(--theme-main)"/>
</linearGradient>
</defs>
</svg>
