<svg width="11" height="10" viewBox="0 0 11 10" fill="none" xmlns="http://www.w3.org/2000/svg">
<path d="M9.06234 8.90756V0.990888C9.06234 0.766583 9.13834 0.578694 9.29034 0.427222C9.44234 0.275749 9.63023 0.199749 9.854 0.199221C10.0778 0.198694 10.2659 0.274694 10.4185 0.427222C10.571 0.579749 10.6467 0.767638 10.6457 0.990888V8.90756C10.6457 9.13186 10.5697 9.32001 10.4177 9.47201C10.2657 9.62401 10.0778 9.69975 9.854 9.69922C9.63023 9.69869 9.44234 9.62269 9.29034 9.47122C9.13834 9.31975 9.06234 9.13186 9.06234 8.90756ZM0.354004 8.21485V1.6836C0.354004 1.4461 0.433171 1.25478 0.591504 1.10964C0.749837 0.964499 0.934559 0.89193 1.14567 0.89193C1.21164 0.89193 1.28421 0.898527 1.36338 0.911722C1.44255 0.924916 1.51512 0.957902 1.58109 1.01068L6.48942 4.2961C6.60817 4.37526 6.69737 4.47106 6.757 4.58347C6.81664 4.69589 6.8462 4.8178 6.84567 4.94922C6.84514 5.08064 6.81559 5.20282 6.757 5.31576C6.69842 5.42871 6.60923 5.52424 6.48942 5.60235L1.58109 8.88776C1.51512 8.94054 1.44255 8.97353 1.36338 8.98672C1.28421 8.99992 1.21164 9.00651 1.14567 9.00651C0.934559 9.00651 0.749837 8.93394 0.591504 8.78881C0.433171 8.64367 0.354004 8.45235 0.354004 8.21485Z" fill="#B3B3B3"/>
</svg>
