<svg viewBox="0 0 15 15" fill="none" xmlns="http://www.w3.org/2000/svg">
<path d="M4.13669 14.0509L4.13661 14.0508L4.12626 14.0574C4.05757 14.1011 4.00562 14.11 3.95705 14.1059C3.88134 14.0996 3.82904 14.0771 3.785 14.0428C3.72256 13.9943 3.67422 13.9347 3.63763 13.8581C3.62409 13.8297 3.61163 13.7843 3.63183 13.6961C3.63187 13.6959 3.63192 13.6957 3.63196 13.6955L4.54834 9.75922C4.59046 9.5783 4.5288 9.38894 4.38824 9.2675L1.33015 6.62547C1.2604 6.56179 1.23678 6.50964 1.22766 6.46729C1.21271 6.39784 1.21717 6.33712 1.23994 6.27409C1.26886 6.19405 1.30672 6.14245 1.34908 6.10536C1.36699 6.08967 1.41666 6.05685 1.53606 6.03852L5.56334 5.68561C5.74797 5.66943 5.9085 5.55246 5.98046 5.38166L7.54296 1.67333L7.54297 1.67333L7.54373 1.67149C7.57396 1.59894 7.61047 1.5629 7.65324 1.53851C7.73201 1.49359 7.79657 1.47919 7.85303 1.47919C7.90948 1.47919 7.97405 1.49359 8.05281 1.53851C8.09558 1.5629 8.13209 1.59894 8.16232 1.6715L8.16232 1.6715L8.16309 1.67333L9.72559 5.38166C9.79755 5.55246 9.95809 5.66943 10.1427 5.68561L14.1694 6.03846C14.2902 6.05734 14.3399 6.09039 14.3571 6.10547C14.3985 6.14171 14.4367 6.19332 14.4665 6.27506C14.4896 6.33878 14.494 6.39944 14.4792 6.46813C14.4703 6.50978 14.4469 6.56139 14.3768 6.62469L11.3178 9.2675C11.1772 9.38894 11.1156 9.5783 11.1577 9.75922L12.0742 13.6958C12.0742 13.6959 12.0742 13.6959 12.0742 13.696C12.0943 13.7833 12.0822 13.8291 12.0681 13.8587C12.0315 13.9357 11.9835 13.9945 11.9222 14.042C11.8776 14.0764 11.8243 14.0994 11.7474 14.106C11.7 14.1102 11.6491 14.1017 11.5809 14.058L11.581 14.0579L11.5694 14.0509L8.11103 11.9676C7.95232 11.8719 7.75374 11.8719 7.59502 11.9676L4.13669 14.0509Z" stroke="#FFC300" stroke-linejoin="round"/>
</svg>
