<svg width="10" height="8" viewBox="0 0 10 8" fill="currentcolor" stroke="currentcolor" xmlns="http://www.w3.org/2000/svg">
<path d="M8.43555 0.75C8.655 0.752046 8.86238 0.844971 9.01367 1.00391C9.16449 1.16246 9.24819 1.37459 9.25 1.59375C9.25174 1.8129 9.17155 2.0264 9.02344 2.1875L8.94922 2.26855H8.93848L4.4375 6.99609C4.28449 7.15678 4.07446 7.24993 3.85254 7.25C3.63053 7.25 3.41967 7.15684 3.2666 6.99609L0.979492 4.59375L0.976562 4.59082V4.58984C0.828514 4.4287 0.748187 4.21525 0.75 3.99609C0.751905 3.77697 0.835467 3.56473 0.986328 3.40625C1.13761 3.2474 1.34507 3.15537 1.56445 3.15332C1.75655 3.15157 1.94069 3.21911 2.08691 3.34082L2.14746 3.39648L2.15039 3.39941L3.85547 5.19141L7.84961 0.996094L7.85254 0.993164C8.00661 0.836838 8.21603 0.747996 8.43555 0.75Z" stroke-width="0.5"/>
</svg>
