<svg width="33" height="33" viewBox="0 0 33 33" fill="var(--theme-neutral)" xmlns="http://www.w3.org/2000/svg">
<path d="M7.5625 2.75H23.375C24.2867 2.75 25.161 3.11216 25.8057 3.75682C26.4503 4.40148 26.8125 5.27582 26.8125 6.1875V15.5554C25.2457 15.0477 23.569 14.9829 21.9677 15.3681C20.3664 15.7532 18.9026 16.5734 17.738 17.738C16.5734 18.9026 15.7532 20.3664 15.3681 21.9677C14.9829 23.569 15.0477 25.2457 15.5554 26.8125H6.1875C6.1875 27.1772 6.33237 27.5269 6.59023 27.7848C6.84809 28.0426 7.19783 28.1875 7.5625 28.1875H16.1315C16.5249 28.9421 17.024 29.6366 17.6138 30.25H7.5625C6.65082 30.25 5.77648 29.8878 5.13182 29.2432C4.48716 28.5985 4.125 27.7242 4.125 26.8125V6.1875C4.125 5.27582 4.48716 4.40148 5.13182 3.75682C5.77648 3.11216 6.65082 2.75 7.5625 2.75ZM9.625 6.875C9.26033 6.875 8.91059 7.01987 8.65273 7.27773C8.39487 7.53559 8.25 7.88533 8.25 8.25V9.625C8.25 9.98967 8.39487 10.3394 8.65273 10.5973C8.91059 10.8551 9.26033 11 9.625 11H20.625C20.9897 11 21.3394 10.8551 21.5973 10.5973C21.8551 10.3394 22 9.98967 22 9.625V8.25C22 7.88533 21.8551 7.53559 21.5973 7.27773C21.3394 7.01987 20.9897 6.875 20.625 6.875H9.625ZM31.625 24.0625C31.625 22.0568 30.8282 20.1332 29.41 18.715C27.9918 17.2968 26.0682 16.5 24.0625 16.5C22.0568 16.5 20.1332 17.2968 18.715 18.715C17.2968 20.1332 16.5 22.0568 16.5 24.0625C16.5 26.0682 17.2968 27.9918 18.715 29.41C20.1332 30.8282 22.0568 31.625 24.0625 31.625C26.0682 31.625 27.9918 30.8282 29.41 29.41C30.8282 27.9918 31.625 26.0682 31.625 24.0625ZM23.2568 20.7584L27.115 23.2884C27.2351 23.3654 27.329 23.4676 27.3969 23.595C27.4656 23.7197 27.5 23.8563 27.5 24.0047C27.5001 24.1473 27.4662 24.2878 27.401 24.4145C27.3381 24.5395 27.2444 24.6464 27.1287 24.7253L23.2691 27.3584C23.2023 27.4041 23.1291 27.4398 23.0519 27.4643C22.8732 27.5215 22.6796 27.5102 22.5088 27.4326C22.4104 27.3862 22.3207 27.3234 22.2434 27.247C22.1685 27.1662 22.108 27.0732 22.0646 26.972C22.0212 26.8689 21.9992 26.758 22 26.6461V21.4789C21.9989 21.3134 22.0461 21.1511 22.1357 21.0119C22.2253 20.8727 22.3535 20.7627 22.5046 20.6951C22.6244 20.6387 22.757 20.6147 22.889 20.6255C23.021 20.6364 23.1478 20.6817 23.2568 20.757"/>
</svg>
